<svg width="78" height="78" viewBox="0 0 78 78" fill="none" xmlns="http://www.w3.org/2000/svg">
<g id="bxs:quote-left" opacity="0.3">
<path id="Vector" d="M11.9957 20.449C16.5554 15.5057 23.4552 13 32.4999 13H35.7499V22.1617L33.1369 22.685C28.6844 23.5755 25.5872 25.3272 23.9297 27.898C23.0648 29.2829 22.5743 30.8686 22.5062 32.5H32.4999C33.3619 32.5 34.1885 32.8424 34.798 33.4519C35.4075 34.0614 35.7499 34.888 35.7499 35.75V58.5C35.7499 62.0848 32.8347 65 29.2499 65H9.74993C8.88797 65 8.06132 64.6576 7.45183 64.0481C6.84234 63.4386 6.49993 62.612 6.49993 61.75V45.5L6.50968 36.0133C6.48043 35.6525 5.86293 27.105 11.9957 20.449ZM64.9999 65H45.4999C44.638 65 43.8113 64.6576 43.2018 64.0481C42.5923 63.4386 42.2499 62.612 42.2499 61.75V45.5L42.2597 36.0133C42.2304 35.6525 41.6129 27.105 47.7457 20.449C52.3054 15.5057 59.2052 13 68.2499 13H71.4999V22.1617L68.8869 22.685C64.4344 23.5755 61.3372 25.3272 59.6797 27.898C58.8148 29.2829 58.3243 30.8686 58.2562 32.5H68.2499C69.1119 32.5 69.9385 32.8424 70.548 33.4519C71.1575 34.0614 71.4999 34.888 71.4999 35.75V58.5C71.4999 62.0848 68.5847 65 64.9999 65Z" fill="#D4CCE1"/>
</g>
</svg>
