<svg width="78" height="78" viewBox="0 0 78 78" fill="none" xmlns="http://www.w3.org/2000/svg">
<g id="bxs:quote-left" opacity="0.3">
<path id="Vector" d="M66.0043 20.449C61.4446 15.5057 54.5448 13 45.5001 13H42.2501V22.1617L44.8631 22.685C49.3156 23.5755 52.4128 25.3272 54.0703 27.898C54.9352 29.2829 55.4257 30.8686 55.4938 32.5H45.5001C44.6381 32.5 43.8115 32.8424 43.202 33.4519C42.5925 34.0614 42.2501 34.888 42.2501 35.75V58.5C42.2501 62.0848 45.1653 65 48.7501 65H68.2501C69.112 65 69.9387 64.6576 70.5482 64.0481C71.1577 63.4386 71.5001 62.612 71.5001 61.75V45.5L71.4903 36.0133C71.5196 35.6525 72.1371 27.105 66.0043 20.449ZM13.0001 65H32.5001C33.362 65 34.1887 64.6576 34.7982 64.0481C35.4077 63.4386 35.7501 62.612 35.7501 61.75V45.5L35.7403 36.0133C35.7696 35.6525 36.3871 27.105 30.2543 20.449C25.6946 15.5057 18.7948 13 9.75007 13H6.50007V22.1617L9.11307 22.685C13.5656 23.5755 16.6628 25.3272 18.3203 27.898C19.1852 29.2829 19.6757 30.8686 19.7438 32.5H9.75007C8.88811 32.5 8.06146 32.8424 7.45197 33.4519C6.84248 34.0614 6.50007 34.888 6.50007 35.75V58.5C6.50007 62.0848 9.41532 65 13.0001 65Z" fill="#D4CCE1"/>
</g>
</svg>
