<svg width="61" height="60" viewBox="0 0 61 60" fill="none" xmlns="http://www.w3.org/2000/svg">
<path d="M41.1 5H19.9C13 5 10.5 7.5 10.5 14.525V45.475C10.5 52.5 13 55 19.9 55H41.075C48 55 50.5 52.5 50.5 45.475V14.525C50.5 7.5 48 5 41.1 5ZM30.5 48.25C28.1 48.25 26.125 46.275 26.125 43.875C26.125 41.475 28.1 39.5 30.5 39.5C32.9 39.5 34.875 41.475 34.875 43.875C34.875 46.275 32.9 48.25 30.5 48.25ZM35.5 15.625H25.5C24.475 15.625 23.625 14.775 23.625 13.75C23.625 12.725 24.475 11.875 25.5 11.875H35.5C36.525 11.875 37.375 12.725 37.375 13.75C37.375 14.775 36.525 15.625 35.5 15.625Z" fill="url(#paint0_linear_106_1166)"/>
<defs>
<linearGradient id="paint0_linear_106_1166" x1="10.7273" y1="54.5455" x2="64.278" y2="24.0799" gradientUnits="userSpaceOnUse">
<stop stop-color="#3E0F8B"/>
<stop offset="1" stop-color="#3B22D1"/>
</linearGradient>
</defs>
</svg>
