<svg width="61" height="60" viewBox="0 0 61 60" fill="none" xmlns="http://www.w3.org/2000/svg">
<path d="M44.4 5H16.525C10.45 5 5.5 9.95 5.5 16.025V32.275V32.775C5.5 38.875 10.45 43.8 16.525 43.8H26.125C27.5 43.8 28.625 44.925 28.625 46.3V48.725C28.625 50.1 27.5 51.225 26.125 51.225H20.075C19.05 51.225 18.2 52.075 18.2 53.1C18.2 54.125 19.025 55 20.075 55H40.95C41.975 55 42.825 54.15 42.825 53.125C42.825 52.1 41.975 51.25 40.95 51.25H34.9C33.525 51.25 32.4 50.125 32.4 48.75V46.325C32.4 44.95 33.525 43.825 34.9 43.825H44.425C50.525 43.825 55.45 38.875 55.45 32.8V32.3V16.05C55.425 9.95 50.475 5 44.4 5Z" fill="url(#paint0_linear_106_1176)"/>
<defs>
<linearGradient id="paint0_linear_106_1176" x1="5.7838" y1="54.5455" x2="64.6092" y2="12.7543" gradientUnits="userSpaceOnUse">
<stop stop-color="#3E0F8B"/>
<stop offset="1" stop-color="#3B22D1"/>
</linearGradient>
</defs>
</svg>
