<svg width="169" height="24" viewBox="0 0 169 24" fill="none" xmlns="http://www.w3.org/2000/svg">
<path d="M7.77194 2.43905L8.84894 2.09505C9.85694 1.77305 10.9349 2.29405 11.3669 3.31205L12.2269 5.34005C12.6019 6.22305 12.3939 7.26205 11.7129 7.90805L9.81994 9.70605C9.93694 10.7821 10.2979 11.8411 10.9039 12.8831C11.4798 13.8912 12.252 14.7736 13.1749 15.4781L15.4509 14.7181C16.3129 14.4311 17.2519 14.7621 17.7809 15.5391L19.0129 17.3491C19.6289 18.2531 19.5179 19.4991 18.7549 20.2651L17.9369 21.0861C17.1229 21.9031 15.9609 22.2001 14.8849 21.8641C12.3459 21.0721 10.0119 18.7211 7.88194 14.8111C5.74894 10.8951 4.99694 7.57105 5.62394 4.84305C5.88794 3.69505 6.70594 2.78005 7.77394 2.43905H7.77194Z" fill="url(#paint0_linear_106_9001)"/>
<path d="M37.896 15.48V12.348H34.8V11.052H37.896V7.92H39.264V11.052H42.36V12.348H39.264V15.48H37.896ZM49.5441 18.252C48.6201 18.252 47.8281 18.09 47.1681 17.766C46.5201 17.43 46.0281 16.974 45.6921 16.398C45.3561 15.822 45.1881 15.168 45.1881 14.436H46.6461C46.6461 15.18 46.8921 15.786 47.3841 16.254C47.8761 16.71 48.5961 16.938 49.5441 16.938C50.5401 16.938 51.3021 16.674 51.8301 16.146C52.3701 15.606 52.6401 14.868 52.6401 13.932V12.186H52.4061C52.1781 12.546 51.8121 12.882 51.3081 13.194C50.8161 13.494 50.1201 13.644 49.2201 13.644C48.4641 13.644 47.7681 13.476 47.1321 13.14C46.5081 12.804 46.0101 12.33 45.6381 11.718C45.2661 11.106 45.0801 10.38 45.0801 9.54V9.324C45.0801 8.46 45.2781 7.722 45.6741 7.11C46.0701 6.486 46.6041 6.006 47.2761 5.67C47.9601 5.322 48.7341 5.148 49.5981 5.148C50.4741 5.148 51.2481 5.322 51.9201 5.67C52.6041 6.006 53.1381 6.492 53.5221 7.128C53.9061 7.752 54.0981 8.508 54.0981 9.396V13.788C54.0981 14.724 53.9121 15.528 53.5401 16.2C53.1801 16.86 52.6581 17.37 51.9741 17.73C51.2901 18.078 50.4801 18.252 49.5441 18.252ZM49.5981 12.42C50.1981 12.42 50.7261 12.3 51.1821 12.06C51.6381 11.808 51.9921 11.466 52.2441 11.034C52.5081 10.59 52.6401 10.074 52.6401 9.486V9.342C52.6401 8.442 52.3581 7.74 51.7941 7.236C51.2421 6.72 50.5101 6.462 49.5981 6.462C48.6861 6.462 47.9481 6.72 47.3841 7.236C46.8201 7.74 46.5381 8.442 46.5381 9.342V9.486C46.5381 10.074 46.6641 10.59 46.9161 11.034C47.1801 11.466 47.5401 11.808 47.9961 12.06C48.4641 12.3 48.9981 12.42 49.5981 12.42ZM56.1376 18V16.686C56.1376 15.786 56.2936 15.066 56.6056 14.526C56.9296 13.986 57.3736 13.554 57.9376 13.23C58.5136 12.894 59.1976 12.606 59.9896 12.366L60.9796 12.06C61.5196 11.892 61.9936 11.688 62.4016 11.448C62.8096 11.196 63.1276 10.884 63.3556 10.512C63.5836 10.128 63.6976 9.66 63.6976 9.108V9.036C63.6976 8.244 63.4216 7.62 62.8696 7.164C62.3176 6.696 61.6096 6.462 60.7456 6.462C59.8336 6.462 59.0896 6.708 58.5136 7.2C57.9376 7.68 57.6496 8.412 57.6496 9.396V9.648H56.2096V9.414C56.2096 8.502 56.4076 7.728 56.8036 7.092C57.1996 6.456 57.7396 5.976 58.4236 5.652C59.1076 5.316 59.8816 5.148 60.7456 5.148C61.6096 5.148 62.3716 5.31 63.0316 5.634C63.7036 5.958 64.2256 6.408 64.5976 6.984C64.9696 7.56 65.1556 8.232 65.1556 9V9.162C65.1556 9.978 64.9936 10.656 64.6696 11.196C64.3456 11.724 63.8956 12.156 63.3196 12.492C62.7556 12.828 62.0896 13.116 61.3216 13.356L60.3496 13.662C59.7376 13.854 59.2276 14.058 58.8196 14.274C58.4236 14.478 58.1236 14.742 57.9196 15.066C57.7156 15.39 57.6136 15.828 57.6136 16.38V16.686H65.0476V18H56.1376ZM76.1063 18.252C75.2183 18.252 74.4203 18.084 73.7123 17.748C73.0163 17.412 72.4643 16.926 72.0563 16.29C71.6603 15.654 71.4623 14.886 71.4623 13.986V13.644H72.9203V13.968C72.9203 14.892 73.2143 15.618 73.8023 16.146C74.3903 16.674 75.1583 16.938 76.1063 16.938C77.0663 16.938 77.8103 16.692 78.3383 16.2C78.8783 15.696 79.1483 15.066 79.1483 14.31V14.166C79.1483 13.614 79.0163 13.17 78.7523 12.834C78.4883 12.486 78.1283 12.234 77.6723 12.078C77.2283 11.91 76.7363 11.826 76.1963 11.826H74.1443V10.008L78.9503 6.93V6.714H71.7683V5.4H80.4983V7.434L75.8003 10.458V10.674H76.7003C77.4083 10.674 78.0563 10.806 78.6443 11.07C79.2443 11.322 79.7183 11.706 80.0663 12.222C80.4263 12.726 80.6063 13.362 80.6063 14.13V14.328C80.6063 15.12 80.4203 15.81 80.0483 16.398C79.6763 16.986 79.1543 17.442 78.4823 17.766C77.8103 18.09 77.0183 18.252 76.1063 18.252ZM82.4696 18V16.686C82.4696 15.786 82.6256 15.066 82.9376 14.526C83.2616 13.986 83.7056 13.554 84.2696 13.23C84.8456 12.894 85.5296 12.606 86.3216 12.366L87.3116 12.06C87.8516 11.892 88.3256 11.688 88.7336 11.448C89.1416 11.196 89.4596 10.884 89.6876 10.512C89.9156 10.128 90.0296 9.66 90.0296 9.108V9.036C90.0296 8.244 89.7536 7.62 89.2016 7.164C88.6496 6.696 87.9416 6.462 87.0776 6.462C86.1656 6.462 85.4216 6.708 84.8456 7.2C84.2696 7.68 83.9816 8.412 83.9816 9.396V9.648H82.5416V9.414C82.5416 8.502 82.7396 7.728 83.1356 7.092C83.5316 6.456 84.0716 5.976 84.7556 5.652C85.4396 5.316 86.2136 5.148 87.0776 5.148C87.9416 5.148 88.7036 5.31 89.3636 5.634C90.0356 5.958 90.5576 6.408 90.9296 6.984C91.3016 7.56 91.4876 8.232 91.4876 9V9.162C91.4876 9.978 91.3256 10.656 91.0016 11.196C90.6776 11.724 90.2276 12.156 89.6516 12.492C89.0876 12.828 88.4216 13.116 87.6536 13.356L86.6816 13.662C86.0696 13.854 85.5596 14.058 85.1516 14.274C84.7556 14.478 84.4556 14.742 84.2516 15.066C84.0476 15.39 83.9456 15.828 83.9456 16.38V16.686H91.3796V18H82.4696ZM96.9873 18V6.372H96.7173L94.2693 10.854H92.6853L95.6913 5.4H98.4453V18H96.9873ZM105.339 18.252C104.451 18.252 103.653 18.084 102.945 17.748C102.249 17.412 101.697 16.926 101.289 16.29C100.893 15.654 100.695 14.886 100.695 13.986V13.644H102.153V13.968C102.153 14.892 102.447 15.618 103.035 16.146C103.623 16.674 104.391 16.938 105.339 16.938C106.299 16.938 107.043 16.692 107.571 16.2C108.111 15.696 108.381 15.066 108.381 14.31V14.166C108.381 13.614 108.249 13.17 107.985 12.834C107.721 12.486 107.361 12.234 106.905 12.078C106.461 11.91 105.969 11.826 105.429 11.826H103.377V10.008L108.183 6.93V6.714H101.001V5.4H109.731V7.434L105.033 10.458V10.674H105.933C106.641 10.674 107.289 10.806 107.877 11.07C108.477 11.322 108.951 11.706 109.299 12.222C109.659 12.726 109.839 13.362 109.839 14.13V14.328C109.839 15.12 109.653 15.81 109.281 16.398C108.909 16.986 108.387 17.442 107.715 17.766C107.043 18.09 106.251 18.252 105.339 18.252ZM111.702 18V16.686C111.702 15.786 111.858 15.066 112.17 14.526C112.494 13.986 112.938 13.554 113.502 13.23C114.078 12.894 114.762 12.606 115.554 12.366L116.544 12.06C117.084 11.892 117.558 11.688 117.966 11.448C118.374 11.196 118.692 10.884 118.92 10.512C119.148 10.128 119.262 9.66 119.262 9.108V9.036C119.262 8.244 118.986 7.62 118.434 7.164C117.882 6.696 117.174 6.462 116.31 6.462C115.398 6.462 114.654 6.708 114.078 7.2C113.502 7.68 113.214 8.412 113.214 9.396V9.648H111.774V9.414C111.774 8.502 111.972 7.728 112.368 7.092C112.764 6.456 113.304 5.976 113.988 5.652C114.672 5.316 115.446 5.148 116.31 5.148C117.174 5.148 117.936 5.31 118.596 5.634C119.268 5.958 119.79 6.408 120.162 6.984C120.534 7.56 120.72 8.232 120.72 9V9.162C120.72 9.978 120.558 10.656 120.234 11.196C119.91 11.724 119.46 12.156 118.884 12.492C118.32 12.828 117.654 13.116 116.886 13.356L115.914 13.662C115.302 13.854 114.792 14.058 114.384 14.274C113.988 14.478 113.688 14.742 113.484 15.066C113.28 15.39 113.178 15.828 113.178 16.38V16.686H120.612V18H111.702ZM128.212 18V15.426H121.642V13.698L126.934 5.4H129.67V14.112H131.83V15.426H129.67V18H128.212ZM123.1 14.112H128.212V6.282H127.96L123.1 13.896V14.112ZM136.503 18V6.372H136.233L133.785 10.854H132.201L135.207 5.4H137.961V18H136.503ZM140.354 18V16.686C140.354 15.786 140.51 15.066 140.822 14.526C141.146 13.986 141.59 13.554 142.154 13.23C142.73 12.894 143.414 12.606 144.206 12.366L145.196 12.06C145.736 11.892 146.21 11.688 146.618 11.448C147.026 11.196 147.344 10.884 147.572 10.512C147.8 10.128 147.914 9.66 147.914 9.108V9.036C147.914 8.244 147.638 7.62 147.086 7.164C146.534 6.696 145.826 6.462 144.962 6.462C144.05 6.462 143.306 6.708 142.73 7.2C142.154 7.68 141.866 8.412 141.866 9.396V9.648H140.426V9.414C140.426 8.502 140.624 7.728 141.02 7.092C141.416 6.456 141.956 5.976 142.64 5.652C143.324 5.316 144.098 5.148 144.962 5.148C145.826 5.148 146.588 5.31 147.248 5.634C147.92 5.958 148.442 6.408 148.814 6.984C149.186 7.56 149.372 8.232 149.372 9V9.162C149.372 9.978 149.21 10.656 148.886 11.196C148.562 11.724 148.112 12.156 147.536 12.492C146.972 12.828 146.306 13.116 145.538 13.356L144.566 13.662C143.954 13.854 143.444 14.058 143.036 14.274C142.64 14.478 142.34 14.742 142.136 15.066C141.932 15.39 141.83 15.828 141.83 16.38V16.686H149.264V18H140.354ZM151.2 18V16.686C151.2 15.786 151.356 15.066 151.668 14.526C151.992 13.986 152.436 13.554 153 13.23C153.576 12.894 154.26 12.606 155.052 12.366L156.042 12.06C156.582 11.892 157.056 11.688 157.464 11.448C157.872 11.196 158.19 10.884 158.418 10.512C158.646 10.128 158.76 9.66 158.76 9.108V9.036C158.76 8.244 158.484 7.62 157.932 7.164C157.38 6.696 156.672 6.462 155.808 6.462C154.896 6.462 154.152 6.708 153.576 7.2C153 7.68 152.712 8.412 152.712 9.396V9.648H151.272V9.414C151.272 8.502 151.47 7.728 151.866 7.092C152.262 6.456 152.802 5.976 153.486 5.652C154.17 5.316 154.944 5.148 155.808 5.148C156.672 5.148 157.434 5.31 158.094 5.634C158.766 5.958 159.288 6.408 159.66 6.984C160.032 7.56 160.218 8.232 160.218 9V9.162C160.218 9.978 160.056 10.656 159.732 11.196C159.408 11.724 158.958 12.156 158.382 12.492C157.818 12.828 157.152 13.116 156.384 13.356L155.412 13.662C154.8 13.854 154.29 14.058 153.882 14.274C153.486 14.478 153.186 14.742 152.982 15.066C152.778 15.39 152.676 15.828 152.676 16.38V16.686H160.11V18H151.2ZM165.718 18V6.372H165.448L163 10.854H161.416L164.422 5.4H167.176V18H165.718Z" fill="#F2F2F2"/>
<defs>
<linearGradient id="paint0_linear_106_9001" x1="5.4897" y1="21.8182" x2="25.3719" y2="11.9207" gradientUnits="userSpaceOnUse">
<stop stop-color="#3E0F8B"/>
<stop offset="1" stop-color="#3B22D1"/>
</linearGradient>
</defs>
</svg>
