<svg width="61" height="60" viewBox="0 0 61 60" fill="none" xmlns="http://www.w3.org/2000/svg">
<g clip-path="url(#clip0_106_1186)">
<path d="M60.5 39.3538V41.5835C60.455 41.6879 60.4195 41.7961 60.3937 41.9069C59.65 47.3522 55.0219 51.5178 49.5547 51.5335C37.6484 51.5647 25.7422 51.5647 13.8359 51.5335C7.82812 51.5131 2.47657 47.2756 0.953129 41.4631C0.762504 40.7335 0.65 39.9835 0.5 39.2428V36.896C0.534375 36.7397 0.582808 36.5991 0.603121 36.4491C1.11562 32.5678 2.94843 29.4694 6.10156 27.1538C6.38593 26.9444 6.49844 26.7538 6.45157 26.3866C5.57344 19.521 11.8984 13.8663 18.6391 15.5007C19.0641 15.6038 19.2484 15.535 19.4359 15.1366C21.6313 10.4866 26.7125 7.61315 32.1609 8.2819C37.0047 8.87565 41.3188 12.7241 42.4734 17.6569C42.6016 18.2038 42.6859 18.7616 42.7984 19.3569C43.0016 19.3257 43.1906 19.3022 43.3781 19.2663C44.606 19.0143 45.8717 19.009 47.1016 19.2507C52.3937 20.3085 55.7766 25.0022 55.1234 30.3913C55.0719 30.8163 55.1797 31.046 55.5422 31.2881C57.5571 32.5987 59.0787 34.5425 59.8672 36.8131C60.1469 37.6335 60.2906 38.5053 60.5 39.3538ZM46.4266 28.5631C45.4016 28.6006 44.4328 28.7881 43.6031 29.4116C42.55 30.2022 42.0609 31.271 42.2281 32.5788C42.3844 33.796 43.0625 34.6538 44.2141 35.1178C45.0266 35.4444 45.8484 35.7538 46.6531 36.1022C47.106 36.2776 47.5365 36.5057 47.9359 36.7819C48.5937 37.2772 48.5953 37.9663 47.9875 38.5303C47.3797 39.0944 46.6422 39.196 45.8563 39.0772C44.9827 38.9377 44.1771 38.5214 43.5578 37.8897C43.346 37.6817 43.061 37.5651 42.7641 37.5651C42.4672 37.5651 42.1821 37.6817 41.9703 37.8897C41.7567 38.0943 41.6282 38.3719 41.6105 38.6671C41.5929 38.9623 41.6873 39.2533 41.875 39.4819C43.375 41.4272 46.8922 42.0569 48.9609 40.7522C50.3672 39.86 51.0656 38.271 50.6484 36.7866C50.2625 35.4053 49.2422 34.6335 47.9828 34.1069C47.1031 33.7366 46.2141 33.3866 45.3266 33.0428C44.8781 32.8694 44.5109 32.6553 44.5453 32.0928C44.5797 31.5303 44.9281 31.2475 45.4 31.0913C45.8888 30.9124 46.4158 30.8641 46.9289 30.9509C47.4421 31.0378 47.9238 31.2569 48.3266 31.5866C49.0047 32.1147 49.6766 32.1428 50.1328 31.6147C50.5891 31.0866 50.5047 30.3757 49.8594 29.8163C48.8766 28.9569 47.7016 28.6053 46.4266 28.5631ZM26.5141 40.3975C26.7187 40.6975 26.8531 40.9913 27.0719 41.1913C27.2296 41.3411 27.4307 41.4369 27.6464 41.465C27.8621 41.4931 28.0811 41.452 28.2719 41.3475C28.7672 41.1116 28.9703 40.696 28.9703 40.1631C28.9703 38.0361 28.9703 35.91 28.9703 33.785C28.9703 33.1991 28.9891 32.6131 28.9562 32.0303C28.9431 31.7651 28.8399 31.5122 28.6639 31.3134C28.4878 31.1146 28.2492 30.9817 27.9875 30.9366C27.4609 30.8428 26.9656 31.1225 26.7172 31.6553C26.6625 31.7725 26.6187 31.8928 26.5703 32.0132C23.7891 30.6288 21.4766 31.846 20.3844 33.2631C19.74 34.0941 19.3878 35.1144 19.3824 36.1659C19.3771 37.2174 19.7188 38.2413 20.3547 39.0788C21.7875 40.9678 24.0203 41.4381 26.5141 40.3975ZM37.7234 32.0257C35.0328 30.671 32.7031 31.7553 31.5437 33.2272C30.8919 34.0524 30.5305 35.0695 30.5155 36.121C30.5006 37.1724 30.8329 38.1994 31.4609 39.0428C32.8828 40.9569 35.0719 41.4272 37.7109 40.3757C37.7516 40.4819 37.7875 40.5928 37.8344 40.696C38.0766 41.2382 38.5594 41.5288 39.0844 41.4507C39.359 41.4147 39.6115 41.281 39.7957 41.0741C39.9799 40.8673 40.0835 40.601 40.0875 40.3241C40.1052 37.5741 40.1052 34.8241 40.0875 32.0741C40.0883 31.907 40.0527 31.7418 39.9831 31.5898C39.9136 31.4379 39.8117 31.303 39.6847 31.1944C39.5577 31.0859 39.4086 31.0063 39.2477 30.9612C39.0868 30.9161 38.918 30.9067 38.7531 30.9335C38.1641 31.0335 37.8641 31.4413 37.7234 32.0257ZM13.5922 41.471C15.0297 41.4413 16.2734 40.9788 17.1984 39.8382C18.35 38.421 18.2656 36.4772 16.9312 35.235C16.3886 34.7627 15.7782 34.3745 15.1203 34.0835C14.2094 33.646 13.2453 33.3194 12.3078 32.9225C11.7266 32.6741 11.5578 32.0725 11.9516 31.5819C12.1466 31.3412 12.4062 31.1613 12.7 31.0631C13.1918 30.8938 13.7195 30.8571 14.23 30.9567C14.7405 31.0563 15.2157 31.2886 15.6078 31.6303C16.2 32.121 16.875 32.1241 17.3266 31.6303C17.7781 31.1366 17.7234 30.4647 17.2313 29.9475C15.6688 28.3069 12.4047 28.0991 10.6562 29.5288C8.67969 31.1444 9.09375 34.1163 11.4547 35.1194C12.2359 35.4553 13.0516 35.7444 13.8375 36.085C14.3083 36.2686 14.7566 36.5056 15.1734 36.7913C15.7828 37.2444 15.8109 37.9288 15.2563 38.4538C14.9941 38.7108 14.6718 38.8983 14.3188 38.9991C12.9953 39.3116 11.8688 38.8913 10.8938 37.9788C10.3375 37.4569 9.64375 37.4319 9.175 37.8991C8.67813 38.3928 8.70625 39.085 9.27969 39.6585C10.4641 40.8631 11.9312 41.3944 13.5922 41.471Z" fill="url(#paint0_linear_106_1186)"/>
<path d="M35.2923 33.738C34.8081 33.7405 34.3355 33.8863 33.9341 34.1571C33.5326 34.4278 33.2203 34.8113 33.0366 35.2593C32.8529 35.7073 32.8059 36.1997 32.9017 36.6744C32.9974 37.149 33.2316 37.5847 33.5746 37.9264C33.9177 38.2681 34.3542 38.5006 34.8292 38.5946C35.3042 38.6885 35.7964 38.6397 36.2437 38.4542C36.691 38.2688 37.0734 37.9551 37.3426 37.5526C37.6118 37.1501 37.7558 36.6769 37.7564 36.1927C37.7519 35.5415 37.4905 34.9183 37.0291 34.4587C36.5677 33.9991 35.9436 33.7401 35.2923 33.738Z" fill="white"/>
<path d="M26.6234 36.1629C26.6286 36.6468 26.4904 37.1214 26.2263 37.5269C25.9622 37.9324 25.5841 38.2507 25.1394 38.4417C24.6948 38.6326 24.2035 38.6877 23.7276 38.6C23.2517 38.5123 22.8125 38.2857 22.4651 37.9487C22.1178 37.6118 21.8779 37.1796 21.7757 36.7066C21.6736 36.2336 21.7137 35.7409 21.891 35.2907C22.0683 34.8404 22.3749 34.4527 22.7722 34.1764C23.1695 33.9001 23.6396 33.7475 24.1234 33.7379C24.7757 33.7308 25.4044 33.9816 25.8726 34.4358C26.3409 34.89 26.6107 35.5108 26.6234 36.1629Z" fill="url(#paint1_linear_106_1186)"/>
<path d="M35.2923 33.7381C35.7766 33.7356 36.2507 33.8767 36.6549 34.1434C37.0591 34.4101 37.3753 34.7906 37.5635 35.2367C37.7517 35.6829 37.8036 36.1749 37.7126 36.6505C37.6215 37.1261 37.3916 37.5642 37.0519 37.9093C36.7122 38.2544 36.2779 38.4912 35.8038 38.5898C35.3297 38.6884 34.837 38.6444 34.3879 38.4633C33.9387 38.2822 33.5533 37.9721 33.2802 37.5722C33.0071 37.1723 32.8585 36.7004 32.8533 36.2162C32.8512 35.5651 33.1062 34.9394 33.563 34.4753C34.0197 34.0113 34.6413 33.7463 35.2923 33.7381Z" fill="url(#paint2_linear_106_1186)"/>
</g>
<defs>
<linearGradient id="paint0_linear_106_1186" x1="0.840899" y1="51.1626" x2="54.8717" y2="-1.99242" gradientUnits="userSpaceOnUse">
<stop stop-color="#3E0F8B"/>
<stop offset="1" stop-color="#3B22D1"/>
</linearGradient>
<linearGradient id="paint1_linear_106_1186" x1="21.7483" y1="38.596" x2="27.5185" y2="34.4923" gradientUnits="userSpaceOnUse">
<stop stop-color="#3E0F8B"/>
<stop offset="1" stop-color="#3B22D1"/>
</linearGradient>
<linearGradient id="paint2_linear_106_1186" x1="32.8811" y1="38.5966" x2="38.6515" y2="34.4931" gradientUnits="userSpaceOnUse">
<stop stop-color="#3E0F8B"/>
<stop offset="1" stop-color="#3B22D1"/>
</linearGradient>
<clipPath id="clip0_106_1186">
<rect width="60" height="60" fill="white" transform="translate(0.5)"/>
</clipPath>
</defs>
</svg>
