<svg width="242" height="38" viewBox="0 0 242 38" fill="none" xmlns="http://www.w3.org/2000/svg">
<path d="M13.04 1.59247C15.5112 1.59247 17.8639 2.07486 20.0981 3.03963C22.3492 4.00441 24.2872 5.29924 25.9121 6.92412C27.537 8.549 28.8318 10.487 29.7966 12.7382C30.7614 14.9724 31.2438 17.3251 31.2438 19.7962C31.2438 22.2674 30.7614 24.6286 29.7966 26.8797C28.8318 29.1139 27.537 31.0435 25.9121 32.6684C24.2872 34.2932 22.3492 35.5881 20.0981 36.5528C17.8639 37.5176 15.5112 38 13.04 38H3.41765V12.7635H9.76485V31.6782H13.04C16.3067 31.6782 19.0995 30.5188 21.4183 28.1999C23.7541 25.8642 24.922 23.0629 24.922 19.7962C24.922 17.6467 24.3888 15.6663 23.3225 13.8553C22.2731 12.0273 20.8344 10.5886 19.0064 9.53916C17.1784 8.47283 15.1896 7.93967 13.04 7.93967H3.41765V7.91428H0.294828L3.41765 1.61786V1.59247H13.04ZM48.5081 7.58423L62.6497 38H56.3279L45.3345 14.363L34.3412 38H28.0194L42.1863 7.58423L45.3345 0.780031L48.5081 7.58423ZM82.4022 1.61786V7.93967H74.4047V38H68.0829V7.93967H60.0854V7.91428H56.9626L60.0854 1.61786H82.4022ZM98.9811 7.58423L113.123 38H106.801L95.8075 14.363L84.8141 38H78.4923L92.6593 7.58423L95.8075 0.780031L98.9811 7.58423ZM125.919 1.59247C128.39 1.59247 130.742 2.07486 132.977 3.03963C135.228 4.00441 137.166 5.29924 138.791 6.92412C140.416 8.549 141.71 10.487 142.675 12.7382C143.64 14.9724 144.122 17.3251 144.122 19.7962C144.122 22.2674 143.64 24.6286 142.675 26.8797C141.71 29.1139 140.416 31.0435 138.791 32.6684C137.166 34.2932 135.228 35.5881 132.977 36.5528C130.742 37.5176 128.39 38 125.919 38H116.296V12.7635H122.643V31.6782H125.919C129.185 31.6782 131.978 30.5188 134.297 28.1999C136.633 25.8642 137.801 23.0629 137.801 19.7962C137.801 17.6467 137.267 15.6663 136.201 13.8553C135.152 12.0273 133.713 10.5886 131.885 9.53916C130.057 8.47283 128.068 7.93967 125.919 7.93967H116.296V7.91428H113.173L116.296 1.61786V1.59247H125.919ZM161.387 7.58423L175.528 38H169.206L158.213 14.363L147.22 38H140.898L155.065 7.58423L158.213 0.780031L161.387 7.58423ZM198.962 1.61786H205.284V23.1476C205.284 25.8388 204.615 28.3269 203.278 30.6119C201.958 32.8799 200.155 34.6825 197.87 36.0197C195.602 37.3399 193.123 38 190.431 38C187.74 38 185.252 37.3399 182.967 36.0197C180.699 34.6825 178.897 32.8799 177.559 30.6119C176.239 28.3269 175.579 25.8388 175.579 23.1476V1.61786H181.901V23.1476C181.901 25.5003 182.73 27.5144 184.389 29.1901C186.065 30.8488 188.079 31.6782 190.431 31.6782C192.784 31.6782 194.79 30.8488 196.449 29.1901C198.124 27.5144 198.962 25.5003 198.962 23.1476V7.91428H195.839L198.962 1.61786ZM235.09 38L226.941 23.6046H217.648V38H211.301V12.7635H217.648V17.2827H228.108C229.412 17.2827 230.52 16.8257 231.434 15.9118C232.348 14.9978 232.805 13.8976 232.805 12.6112C232.805 11.3248 232.348 10.2247 231.434 9.31066C230.52 8.39667 229.412 7.93967 228.108 7.93967H211.301V7.91428H208.178L211.301 1.61786H228.108C231.138 1.61786 233.728 2.69265 235.877 4.84224C238.044 6.99182 239.127 9.58148 239.127 12.6112C239.127 14.7946 238.535 16.7919 237.35 18.603C236.165 20.3971 234.608 21.7342 232.678 22.6144L241.412 38H235.09Z" fill="white"/>
</svg>
